<svg xmlns="http://www.w3.org/2000/svg" xmlns:xlink="http://www.w3.org/1999/xlink" version="1.1" x="0px" y="0px" viewBox="0 0 100 100" enable-background="new 0 0 100 100" xml:space="preserve"><path fill="#000000" d="M81.987,38.946c-0.898,0.151,0.312,2.477-1.649,0.938c-0.406-0.317-0.789-0.275-1.315-0.275  c-1.094,0-2.441,0.601-3.477,0.884c0.288,0.276,0.844,0.529,0.915,0.742c0.055,0.161-0.005,0.317,0.099,0.469  c0.153,0.222,0.679,0.394,0.924,0.465c0.039,0.011,0.076,0.008,0.114,0.015c0.064,0.281,0.056,0.654,0.025,0.926  c-0.065,0.559-0.403,0.696-0.52,1.196c-0.046,0.344,0.75,0.055,1.124,0.258c0.236,0.129,0.379,0.692,0.612,0.758  c0.188,0.051,0.322-0.033,0.508-0.003c0.812,0.129,1.294,0.729,1.579,1.069c0.287,0.342,0.461,0.613,0.558,0.013  c0.044-0.281,0.067-0.8,0.001-1.072c-0.107-0.433-0.566-0.717-0.642-1.159c-0.044-0.25-0.367-1.199-0.29-1.444  c1.188,0.123,1.016-0.414,1.119-0.638c0.13-0.272-0.089-0.296,0.266-0.375c0.292-0.065,1.172,0.336,1.324,0.538  c0.085-0.71,0.095-1.625-0.086-2.41C83.079,39.413,82.303,38.892,81.987,38.946z"></path><g><path fill="#000000" d="M75.377,29.431c-0.968,0.128-2.062-1.279-2.906-2.185c-0.533-0.571-1.328-1.328-1.572-0.99   c-0.042,0.266,0.431,0.984,0.582,1.373c0.336,0.872,0.858,2.017,0.233,3.268c0,0-0.559-1.286-1.345-2.82   c-1.643-3.201-3.349-1.984-3.557-1.544c-0.152,0.326-0.443,0.616-0.367,1.921c0.278,4.816-0.93,3.071-0.768,6.84   c0,0,0.938,6.455,1.113,8.549c0,0,0.735-3.49,1.713-3.909l0.65-2.376c0.467-1.599,0.641-2.669,2.09-3.612   c0.356-0.232,0.685-0.491,0.889-0.676c1.024-0.929,2.367-2.077,3.769-2.687c1.702-0.744,3.347-0.862,2.792-0.978   C77.241,29.404,76.703,29.257,75.377,29.431z"></path><path fill="#000000" d="M90.049,32.405c0.966-1.495,2.729-4.695,1.389-6.416c-1.199-1.544-4.706-0.933-6.514-0.49   c-1.57-0.686-3.582-1.749-3.584-1.749c-1.41-0.806-2.567-1.211-3.189-1.393c-0.538-0.848-1.622-3.727-4.623-6.693   c-3.621-3.578-9.734-2.459-12.729-1.887c-0.104-0.072-2.842-2.409-2.842-2.409c-12.244-8.16-23.388-5.15-28.942-2.628   c-4.515,2.05-8.837,4.802-10.605,8.315c-1.527,3.037-3.399,7.816-4.507,11.066c-2.866,8.399-2.894,20.892-1.231,34.006   c0,0,2.373,10.468,0,15.495c-2.373,5.023-3.291,4.604-0.947,6.141c2.342,1.534,2.482,1.954,8.484,1.395   c6.002-0.558,6.142-0.977,6.561-1.954c0.418-0.977-0.977-1.256-3.071-1.675c-2.093-0.419-2.792,0.141-1.116-3.488   c1.675-3.63,4.187-5.165,5.304-11.865c0,0,2.931,1.256,4.047,2.512c1.118,1.258,1.676,11.306,1.536,11.727   c-0.101,0.301,1.542,1.543,3.304,2.109c-0.043,1.306-0.076,3.234,0.063,4.153c0.277,1.819,1.245,3.818,6.33,4.835   c1.201,0.24,2.595,0.436,3.947,0.436c1.611,0,3.163-0.276,4.256-1.092c0.822-0.611,1.309-1.475,1.405-2.493   c0.222-2.346-0.301-3.414-0.612-4.053c-0.041-0.084-0.078-0.154-0.103-0.223c-0.113-0.321-0.368-0.695-0.961-0.838   c0.019-0.297,0.09-0.815,0.3-1.688c1.28-5.29,3.392-9.595,6.391-13.087c-0.007,1.234-0.048,2.546-0.172,3.285   c0,0-0.418,0.977,0.558,0.977c0.978,0,1.257,0.559,1.257,1.258c0,0,4.746,5.637,3.49,11.401c0,0-1.397,1.718,3.21,2.276   c4.606,0.559,9.771,0.978,11.027,0c1.255-0.978-0.979-2.932-3.212-3.769c-2.232-0.838-2.232-0.838-2.232-0.838l-0.838-3.908   c0,0,0-5.723,3.142-11.306c2.518-4.479,4.517-8.036,5.076-10.429c0.103-0.013,0.204-0.012,0.311-0.036l0.767-0.132   c0.262-0.074,0.527-0.171,0.79-0.261c0.264-0.083,0.538-0.28,0.801-0.428c0.008-0.006,0.014-0.012,0.021-0.019   c0.065,0.038,0.128,0.088,0.196,0.118c0.359,0.17,0.732,0.278,1.1,0.317c0.738,0.094,2.027-0.616,2.313-0.856   c1.174-0.98,1.84-1.465,1.862-2.907c1.462-0.98,3.333-1.317,3.582-2.862c0.163-1.021-0.125-2-0.657-3.053   c0.978-1.139,1.921-3.329,2.58-6.136C93.724,37.078,91.315,33.794,90.049,32.405z M90.587,40.656   c-0.77,3.269-0.908,3.487-1.341,3.951l-0.031-0.004c0.102-0.619-0.52-2.929-0.716-3.028c-0.211-0.104,0.662-0.104,0.662-0.104   c0.558-0.174,0.313-1.013,0.313-1.013c-0.872,0-1.872-0.825-2.569-1.314c-0.698-0.489-0.939,0.592-0.939,0.592   c-0.347,1.814,1.136,2.014,1.136,2.014c0.48,0.422,0.759,0.886,0.916,1.318c0.21,0.573,0.137,1.65,0.137,1.65v0.001l0.047,0.821   l0.123,2.119c0.375,0.567,0.89,1.141,0.884,1.339c0.067-0.247-1.382,0.221-1.953,0.383c-1.978,0.557-1.489,1.069-1.141,2.451   c0.11,0.437-0.719,0.21-0.72,0.21c0,0-2.751,0.536-3.113,0.373c-0.879-1.333-4.798-4.338-4.003-2.201   c0.994,1.047,1.882,2.178,2.88,3.214c0,0,0.373,0.696,1.769,0.604c0.95-0.065,2.691-0.454,2.791-0.467   c-0.109,0.24-1.23,2.02-3.023,1.721c-1.116-0.184-2.398-1.025-2.512-1.116c-1.257,0.443,0.535,0.986,0.232,1.211   c-0.699,0.674-0.98,0.744-2.411,0.535c-1.334-0.162-3.824-1.626-6.567-4.886c0,0-2.876-0.921-3.526-1.941   c-0.821-1.292-1.578-2.863-1.915-3.846L65.94,45.08l-0.152,0.07c-0.31,0.14-0.69,0.224-1.018,0.133   c-0.166-0.037-0.307-0.14-0.429-0.262c-0.111-0.137-0.191-0.296-0.251-0.471c-0.204-0.713-0.113-1.496-0.007-2.243   c-0.071,0.374-1.07,0.939-0.524,2.788c0.419,0.838,1.199,0.976,1.687,1.004c0.052,1.948,1.867,5.173,1.934,5.259   c-2.764-0.444-5.085-1.292-7.749-3.747c0,0-3.908-4.746-2.932-11.026c0,0-2.791,5.304-1.954,11.026   c0.838,5.723,7.816,6.98,9.074,6.98c0,0-2.003,5.871-5.029,9.86c-4.599,4.155-7.668,9.58-9.363,16.582   c-0.502,2.081-0.496,3.104,0.028,3.778c0.283,0.365,0.642,0.511,0.944,0.569c0.229,0.478,0.504,1.159,0.351,2.769   c-0.036,0.396-0.196,0.676-0.515,0.914c-1.024,0.761-3.43,0.855-6.432,0.258c-4.235-0.847-4.438-2.185-4.559-2.98   c-0.089-0.591,0.271-4.928,0.379-5.709c0.231-1.667,0.179-3.72-1.068-4.965c-2.374-2.374-3.351-2.792-0.559-4.607   c0,0,1.396-5.861,0.837-12.003c-0.559-6.142,0-5.305,0.279-8.654c0,0-2.652-6.839-0.14-11.166c1.815-3.699-2.861-1.746-3.35,7.816   c-0.139,1.945-2.792,3.629-4.746,0c0,0-1.419-10.42-4.007-16.693c-1.809-4.384-2.507-6.105-4.394-5.035   c-1.688,0.958-2.719,1.789-3.185,1.209c-1.076-1.341,0.529-6.457,1.536-8.05c1.765-2.79,4.883-5.701,9.311-7.712   c5.12-2.325,15.389-5.095,26.7,2.402c0.158,0.147,0.549,0.512,1.026,0.934c-0.055,0.014-0.098,0.028-0.162,0.042   c-0.339,0.086-0.744,0.171-1.186,0.265c-0.89,0.185-1.993,0.328-3.127,0.747c-4.089,1.509-5.548,3.997-5.84,4.505   c-0.152,0.254-0.301,0.505-0.447,0.75c-0.123,0.248-0.243,0.488-0.359,0.723c-0.173,0.329-0.578,1.294-0.834,1.954   c-0.104,0.266-0.237,0.776-0.415,1.536c-0.093,0.527,0.037,0.931,0.736-0.724c0.655-1.618,2.62-4.871,4.304-5.932   c0.642-0.388,2.193-1.052,3.227-1.362c1.038-0.313,10.995-1.867,13.048-1.677c1.069,0.085,2.083,0.304,3.035,0.599   c0.44,0.139,0.904,0.327,1.342,0.521c0.426,0.209,0.817,0.448,1.184,0.698c0.72,0.513,1.307,1.113,1.675,1.728   c0.377,0.609,0.609,1.17,0.775,1.631c0.313,0.917,0.492,1.441,0.492,1.441l-0.099,0.054c0,0-0.08-0.115-0.231-0.33   c-0.136-0.222-0.27-0.597-0.591-0.962c-1.675-1.91-3.14-2.957-7.886-3.794c-1.661-0.293-4.561,0.352-6.317,0.697   c-4.749,0.937-6.317,2.875-7.207,4.471c-4.165,7.476-4.24,19.154-2.842,18.106c1.86-1.396,3.559-9.562,7.816-12.492   c3.349-2.306,4.653,1.744,4.653,1.744c-1.225,1.945-0.716,0.98-2.047,5.792c3.771-6.369,5.163-4.907,5.163-4.907l0.002-1.07   c-0.036-2.216,0.302-3.355,1.189-3.687c2.52-0.942,3.078,0.418,3.648,0.384c2.005,0,0.694-1.273,5.466-1.046l1.532-0.085   c0.012,0.002,1.435,0.011,3.214,1.026c0.099,0.053,2.125,1.543,3.827,2.252l0.351,0.146l0.365-0.097   c1.917-0.507,4.146-0.684,4.548-0.406c0.267,0.536-0.777,2.943-1.958,4.519l-0.62,0.83l0.779,0.683   C87.906,33.411,91.53,36.643,90.587,40.656z"></path></g></svg>