<?xml version="1.0" ?><svg enable-background="new 0 0 512 512" id="Layer_1" version="1.1" viewBox="0 0 512 512" xml:space="preserve" xmlns="http://www.w3.org/2000/svg" xmlns:xlink="http://www.w3.org/1999/xlink"><g><g><linearGradient gradientUnits="userSpaceOnUse" id="SVGID_1_" x1="-0.0000027" x2="512" y1="256" y2="256"><stop offset="0" style="stop-color:#B49A85"/><stop offset="0.0650802" style="stop-color:#B0957F"/><stop offset="0.2856463" style="stop-color:#A88A71"/><stop offset="0.5538635" style="stop-color:#A38369"/><stop offset="1" style="stop-color:#A18166"/></linearGradient><circle cx="256" cy="256" fill="url(#SVGID_1_)" r="256"/><linearGradient gradientUnits="userSpaceOnUse" id="SVGID_2_" x1="42.6666641" x2="469.3333435" y1="256.0005188" y2="256.0005188"><stop offset="0" style="stop-color:#A18166"/><stop offset="0.4461364" style="stop-color:#A38369"/><stop offset="0.7143537" style="stop-color:#A88A71"/><stop offset="0.9349198" style="stop-color:#B0957F"/><stop offset="1" style="stop-color:#B49A85"/></linearGradient><path d="M256,469.3338623c-117.6315002,0-213.3333435-95.7018738-213.3333435-213.3333435    c0-117.6309204,95.7018356-213.333313,213.3333435-213.333313c117.6357117,0,213.3333435,95.7024002,213.3333435,213.333313    C469.3333435,373.6319885,373.6357117,469.3338623,256,469.3338623z" fill="url(#SVGID_2_)"/></g><g><polygon opacity="0.3" points="170.1850433,194.0063934 350.9466248,194.0063934 317.5215759,227.4309387     324.3898315,234.2991943 369.5391541,189.1493378 324.3898315,144 317.5215759,150.8682709 350.9466248,184.2928009     160.4714355,184.2928009 160.4714355,263.2842712 170.1850433,263.2842712   "/><polygon opacity="0.3" points="357.8149109,333.9941406 177.053299,333.9941406 210.4778442,300.5696106 203.6095734,293.7013245     158.4602356,338.8506775 203.6095734,384 210.4778442,377.1322632 177.053299,343.7077332 367.5285034,343.7077332     367.5285034,264.7167969 357.8149109,264.7167969   "/></g><g><polygon fill="#FFFFFF" points="162.1850433,186.0063934 342.9466248,186.0063934 309.5215759,219.4309387     316.3898315,226.2991943 361.5391541,181.1493378 316.3898315,136 309.5215759,142.8682709 342.9466248,176.2928009     152.4714355,176.2928009 152.4714355,255.2842712 162.1850433,255.2842712   "/><polygon fill="#FFFFFF" points="349.8149109,325.9941406 169.053299,325.9941406 202.4778442,292.5696106     195.6095734,285.7013245 150.4602356,330.8506775 195.6095734,376 202.4778442,369.1322632 169.053299,335.7077332     359.5285034,335.7077332 359.5285034,256.7167969 349.8149109,256.7167969   "/></g></g></svg>